<?xml version="1.0" encoding="UTF-8" standalone="no"?>
<!-- Created with Inkscape (http://www.inkscape.org/) -->

<svg
   xmlns:dc="http://purl.org/dc/elements/1.1/"
   xmlns:cc="http://creativecommons.org/ns#"
   xmlns:rdf="http://www.w3.org/1999/02/22-rdf-syntax-ns#"
   xmlns:svg="http://www.w3.org/2000/svg"
   xmlns="http://www.w3.org/2000/svg"
   xmlns:sodipodi="http://sodipodi.sourceforge.net/DTD/sodipodi-0.dtd"
   xmlns:inkscape="http://www.inkscape.org/namespaces/inkscape"
   width="10.496317mm"
   height="8.2959299mm"
   viewBox="0 0 10.496317 8.2959299"
   version="1.1"
   id="svg8"
   inkscape:version="0.92.1 r15371"
   sodipodi:docname="drawing.svg">
  <defs
     id="defs2" />
  <sodipodi:namedview
     id="base"
     pagecolor="#ffffff"
     bordercolor="#666666"
     borderopacity="1.0"
     inkscape:pageopacity="0.0"
     inkscape:pageshadow="2"
     inkscape:zoom="0.35"
     inkscape:cx="-127.77389"
     inkscape:cy="532.93692"
     inkscape:document-units="mm"
     inkscape:current-layer="layer1"
     showgrid="false"
     inkscape:window-width="1366"
     inkscape:window-height="703"
     inkscape:window-x="0"
     inkscape:window-y="0"
     inkscape:window-maximized="1"
     fit-margin-top="0"
     fit-margin-left="0"
     fit-margin-right="0"
     fit-margin-bottom="0" />
  <metadata
     id="metadata5">
    <rdf:RDF>
      <cc:Work
         rdf:about="">
        <dc:format>image/svg+xml</dc:format>
        <dc:type
           rdf:resource="http://purl.org/dc/dcmitype/StillImage" />
        <dc:title></dc:title>
      </cc:Work>
    </rdf:RDF>
  </metadata>
  <g
     inkscape:label="Layer 1"
     inkscape:groupmode="layer"
     id="layer1"
     transform="translate(-7.7264855,-281.54363)">
    <path
       style="fill:#000000;stroke:#4d4d4d;stroke-width:0.05291666"
       id="path3680"
       d="m 7.7529561,284.84887 c 0.09751,-0.5788 0.297109,-1.12679 0.609197,-1.62315 0.607007,-0.75976 1.5392292,-1.42763 2.5264969,-1.47048 0.248298,0.006 0.496579,0.0135 0.744934,0.0165 0.249642,0.003 0.499324,0.004 0.748978,0.003 0.264816,-0.0156 0.506842,10e-4 0.757431,0.0891 0.343944,0.15485 0.626685,0.39713 0.923105,0.62238 0.481819,0.39579 0.720299,0.89174 1.013828,1.42571 0.34992,0.70304 0.635399,1.4358 0.95895,2.15136 0.243028,0.55957 0.491941,1.11341 0.786643,1.64776 0.05818,0.0726 0.283789,0.45615 0.396599,0.44328 0.01724,0.0153 0.03054,0.0368 0.05172,0.0459 0.02105,0.009 0.04651,-8e-4 0.06847,0.006 0.171709,0.0507 0.355525,0.11782 0.513918,0.20055 0.09758,0.0661 0.206021,0.11285 0.31397,0.15892 0,0 -1.881077,1.24318 -1.881077,1.24318 v 0 c -0.101844,-0.0533 -0.202067,-0.10943 -0.30291,-0.16458 -0.217161,-0.0875 -0.449217,-0.13843 -0.653686,-0.25472 -0.185189,-0.15509 -0.306735,-0.3731 -0.433819,-0.57481 -0.279935,-0.54769 -0.529082,-1.10826 -0.772412,-1.67297 -0.315289,-0.71185 -0.584022,-1.44466 -0.9481,-2.13392 -0.282772,-0.48712 -0.53176,-0.98675 -0.993259,-1.33386 -0.275103,-0.21135 -0.554451,-0.42739 -0.884949,-0.54525 -0.242267,-0.0472 -0.486091,-0.0335 -0.732103,-0.0339 -0.248361,-0.003 -0.496737,-0.004 -0.7450827,-0.009 -0.244202,-0.004 -0.4908682,-0.0157 -0.7336382,0.0148 -0.685337,0.15577 -2.206068,1.25874 1.6595219,-1.00698 0.0716,-0.042 -0.387409,0.18583 -0.343437,0.24797 -0.357331,0.43843 -0.5558287,0.96003 -0.6555417,1.51437 0,0 -1.9937452,0.9932 -1.9937452,0.9932 z"
       inkscape:connector-curvature="0" />
    <path
       style="fill:#000000;stroke:#4d4d4d;stroke-width:0.05291666"
       id="path3682"
       d="m 9.2255011,289.14764 c 0.4894282,-0.65334 1.0160859,-1.2807 1.5423099,-1.90537 0.458028,-0.54921 1.131718,-0.86105 1.690724,-1.29291 0.20265,-0.15656 0.390979,-0.33082 0.586469,-0.49624 0.80881,-0.76137 1.601088,-1.53838 2.263903,-2.43219 0.107778,-0.14867 0.198643,-0.30793 0.270506,-0.47663 0,0 2.04188,-0.95098 2.04188,-0.95098 v 0 c -0.065,0.19947 -0.168373,0.38169 -0.286152,0.555 -0.696799,0.91066 -1.504631,1.71487 -2.331741,2.507 -0.181637,0.16998 -0.351543,0.35343 -0.544911,0.50994 -0.152897,0.12374 -0.329334,0.2153 -0.490495,0.32808 -0.157399,0.11014 -0.308922,0.22848 -0.464968,0.34053 -0.242368,0.17405 -0.507798,0.31764 -0.700387,0.54929 -0.542621,0.60144 -1.059573,1.22966 -1.553863,1.87045 0,0 -2.0232749,0.89403 -2.0232749,0.89403 z"
       inkscape:connector-curvature="0" />
  </g>
</svg>
